<?xml version="1.0" encoding="UTF-8"?>
<svg width="1600" height="900" viewBox="0 0 1600 900" fill="none" xmlns="http://www.w3.org/2000/svg" role="img" aria-label="Abstract vibrant background">
  <defs>
    <linearGradient id="grad1" x1="0" y1="0" x2="1" y2="1">
      <stop offset="0%" stop-color="#0b0c0f" />
      <stop offset="100%" stop-color="#12141a" />
    </linearGradient>
    <radialGradient id="glow1" cx="0" cy="0" r="1" gradientUnits="userSpaceOnUse" gradientTransform="translate(240 220) rotate(0) scale(420 420)">
      <stop stop-color="#ff7a00" stop-opacity="0.35" />
      <stop offset="1" stop-color="#ff7a00" stop-opacity="0" />
    </radialGradient>
    <radialGradient id="glow2" cx="0" cy="0" r="1" gradientUnits="userSpaceOnUse" gradientTransform="translate(1320 640) rotate(0) scale(520 520)">
      <stop stop-color="#0097a7" stop-opacity="0.28" />
      <stop offset="1" stop-color="#0097a7" stop-opacity="0" />
    </radialGradient>
    <linearGradient id="shape1" x1="0" y1="0" x2="1" y2="1">
      <stop offset="0%" stop-color="#ff9c47" />
      <stop offset="100%" stop-color="#ff7a00" />
    </linearGradient>
    <linearGradient id="shape2" x1="1" y1="0" x2="0" y2="1">
      <stop offset="0%" stop-color="#00bcd4" />
      <stop offset="100%" stop-color="#0097a7" />
    </linearGradient>
    <linearGradient id="shape3" x1="0" y1="1" x2="1" y2="0">
      <stop offset="0%" stop-color="#ffd166" />
      <stop offset="100%" stop-color="#ffb703" />
    </linearGradient>
    <filter id="blur" x="-20%" y="-20%" width="140%" height="140%">
      <feGaussianBlur stdDeviation="25" />
    </filter>
  </defs>
  <rect width="1600" height="900" fill="url(#grad1)"/>
  <circle cx="220" cy="200" r="380" fill="url(#glow1)" />
  <circle cx="1340" cy="680" r="480" fill="url(#glow2)" />
  <g filter="url(#blur)">
    <path d="M-120 700 C 220 520, 480 980, 860 760 C 1200 580, 1520 840, 1700 660 L 1700 1020 L -120 1020 Z" fill="url(#shape1)" opacity="0.35"/>
    <path d="M-100 160 C 200 60, 560 220, 840 160 C 1100 106, 1440 -40, 1720 120 L 1720 -120 L -100 -120 Z" fill="url(#shape2)" opacity="0.28"/>
    <path d="M-80 520 C 200 400, 600 560, 980 540 C 1260 520, 1500 440, 1720 520 L 1720 920 L -80 920 Z" fill="url(#shape3)" opacity="0.22"/>
  </g>
</svg>

