<?xml version="1.0" encoding="UTF-8"?>
<svg width="128" height="128" viewBox="0 0 128 128" fill="none" xmlns="http://www.w3.org/2000/svg" role="img" aria-label="SNC Rwanda logo mark">
  <defs>
    <linearGradient id="g1" x1="0" y1="0" x2="1" y2="1">
      <stop offset="0%" stop-color="#ff9c47" />
      <stop offset="100%" stop-color="#ff7a00" />
    </linearGradient>
    <linearGradient id="g2" x1="1" y1="0" x2="0" y2="1">
      <stop offset="0%" stop-color="#00bcd4" />
      <stop offset="100%" stop-color="#0097a7" />
    </linearGradient>
    <linearGradient id="g3" x1="0" y1="1" x2="1" y2="0">
      <stop offset="0%" stop-color="#ffd166" />
      <stop offset="100%" stop-color="#ffb703" />
    </linearGradient>
    <filter id="soft" x="-20%" y="-20%" width="140%" height="140%">
      <feGaussianBlur stdDeviation="1.4" />
    </filter>
  </defs>
  <circle cx="64" cy="64" r="60" fill="#0b0c0f" />
  <g transform="translate(14,14)">
    <path d="M0 64 C 24 44, 44 92, 72 76 C 96 62, 120 74, 128 62 L 128 112 L 0 112 Z" fill="url(#g1)" opacity="0.9"/>
    <path d="M0 16 C 20 6, 48 24, 72 18 C 92 13, 116 2, 128 14 L 128 -6 L 0 -6 Z" fill="url(#g2)" opacity="0.85"/>
    <path d="M0 48 C 22 36, 50 52, 80 50 C 104 48, 122 40, 128 48 L 128 96 L 0 96 Z" fill="url(#g3)" opacity="0.8" filter="url(#soft)"/>
  </g>
</svg>

